# xmcd CD database file
#
# Track frame offsets:
#	150
#	7757
#	27270
#	47951
#
# Disc length: 969 seconds
#
# Revision: 0
# Processed by: cddbd v1.5.1PL0 Copyright (c) Steve Scherf et al.
# Submitted via: CDex 1.51
#
DISCID=2403c704
DTITLE=Sonic Revolution - mixin' 2
DYEAR=1900
DGENRE=ゲーム
TTITLE0=Cyber Impact
TTITLE1=てんとう虫 -Hard Trance Mix-
TTITLE2=回想録 ・愛の果てに
TTITLE3=ふたり -Lights And Darks-
EXTD=
EXTT0=
EXTT1=
EXTT2=
EXTT3=
PLAYORDER=
